<svg stroke-miterlimit="10" style="fill-rule:nonzero;clip-rule:evenodd;stroke-linecap:round;stroke-linejoin:round" xml:space="preserve" xmlns="http://www.w3.org/2000/svg" viewBox="209 238.63 288.3 132.75">   <path d="M209.011 347.378c0-8.837 7.163-16 16-16h58c8.836 0 16 7.163 16 16v8c0 8.837-7.164 16-16 16h-58c-8.837 0-16-7.163-16-16zm99.442 0c0-8.837 7.163-16 16-16h58c8.837 0 16 7.163 16 16v8c0 8.837-7.163 16-16 16h-58c-8.837 0-16-7.163-16-16zm0-46.356c0-8.836 7.163-16 16-16h58c8.837 0 16 7.164 16 16v8c0 8.837-7.163 16-16 16h-58c-8.837 0-16-7.163-16-16zm98.846 0c0-8.836 7.163-16 16-16h58c8.836 0 16 7.164 16 16v8c0 8.837-7.164 16-16 16h-58c-8.837 0-16-7.163-16-16zm0-46.362c0-8.837 7.163-16 16-16h58c8.836 0 16 7.163 16 16v8c0 8.837-7.164 16-16 16h-58c-8.837 0-16-7.163-16-16zm0 92.718c0-8.837 7.163-16 16-16h58c8.836 0 16 7.163 16 16v8c0 8.837-7.164 16-16 16h-58c-8.837 0-16-7.163-16-16z" fill="#fe6365"/> </svg>
